<mxfile host="app.diagrams.net" agent="Mozilla/5.0 (X11; Linux x86_64; rv:142.0) Gecko/20100101 Firefox/142.0" version="28.1.2">
  <diagram name="Page-1" id="aHgOdiSO3AqV6QVUTL-D">
    <mxGraphModel dx="599" dy="648" grid="1" gridSize="10" guides="1" tooltips="1" connect="1" arrows="1" fold="1" page="1" pageScale="1" pageWidth="850" pageHeight="1100" math="0" shadow="0">
      <root>
        <mxCell id="0" />
        <mxCell id="1" parent="0" />
        <mxCell id="T-5C3bmZL_pYbA-8gw9O-1" value="GunInterface" style="swimlane;fontStyle=0;childLayout=stackLayout;horizontal=1;startSize=60;fillColor=none;horizontalStack=0;resizeParent=1;resizeParentMax=0;resizeLast=0;collapsible=1;marginBottom=0;whiteSpace=wrap;html=1;" vertex="1" parent="1">
          <mxGeometry x="220" y="160" width="190" height="90" as="geometry" />
        </mxCell>
        <mxCell id="T-5C3bmZL_pYbA-8gw9O-2" value="+shoot()" style="text;strokeColor=none;fillColor=none;align=left;verticalAlign=top;spacingLeft=4;spacingRight=4;overflow=hidden;rotatable=0;points=[[0,0.5],[1,0.5]];portConstraint=eastwest;whiteSpace=wrap;html=1;" vertex="1" parent="T-5C3bmZL_pYbA-8gw9O-1">
          <mxGeometry y="60" width="190" height="30" as="geometry" />
        </mxCell>
        <mxCell id="T-5C3bmZL_pYbA-8gw9O-4" value="Gun&amp;nbsp;" style="swimlane;fontStyle=0;childLayout=stackLayout;horizontal=1;startSize=60;fillColor=none;horizontalStack=0;resizeParent=1;resizeParentMax=0;resizeLast=0;collapsible=1;marginBottom=0;whiteSpace=wrap;html=1;" vertex="1" parent="1">
          <mxGeometry x="340" y="320" width="190" height="90" as="geometry" />
        </mxCell>
        <mxCell id="T-5C3bmZL_pYbA-8gw9O-5" value="+shoot()" style="text;strokeColor=none;fillColor=none;align=left;verticalAlign=top;spacingLeft=4;spacingRight=4;overflow=hidden;rotatable=0;points=[[0,0.5],[1,0.5]];portConstraint=eastwest;whiteSpace=wrap;html=1;" vertex="1" parent="T-5C3bmZL_pYbA-8gw9O-4">
          <mxGeometry y="60" width="190" height="30" as="geometry" />
        </mxCell>
        <mxCell id="T-5C3bmZL_pYbA-8gw9O-10" value="AmmoProxy" style="swimlane;fontStyle=0;childLayout=stackLayout;horizontal=1;startSize=60;fillColor=none;horizontalStack=0;resizeParent=1;resizeParentMax=0;resizeLast=0;collapsible=1;marginBottom=0;whiteSpace=wrap;html=1;" vertex="1" parent="1">
          <mxGeometry x="70" y="320" width="190" height="250" as="geometry" />
        </mxCell>
        <mxCell id="T-5C3bmZL_pYbA-8gw9O-17" value="- _gun: GunInterface" style="text;strokeColor=none;fillColor=none;align=left;verticalAlign=top;spacingLeft=4;spacingRight=4;overflow=hidden;rotatable=0;points=[[0,0.5],[1,0.5]];portConstraint=eastwest;whiteSpace=wrap;html=1;" vertex="1" parent="T-5C3bmZL_pYbA-8gw9O-10">
          <mxGeometry y="60" width="190" height="30" as="geometry" />
        </mxCell>
        <mxCell id="T-5C3bmZL_pYbA-8gw9O-18" value="- _ammo: int" style="text;whiteSpace=wrap;html=1;" vertex="1" parent="T-5C3bmZL_pYbA-8gw9O-10">
          <mxGeometry y="90" width="190" height="40" as="geometry" />
        </mxCell>
        <mxCell id="T-5C3bmZL_pYbA-8gw9O-13" value="" style="line;strokeWidth=1;fillColor=none;align=left;verticalAlign=middle;spacingTop=-1;spacingLeft=3;spacingRight=3;rotatable=0;labelPosition=right;points=[];portConstraint=eastwest;strokeColor=inherit;" vertex="1" parent="T-5C3bmZL_pYbA-8gw9O-10">
          <mxGeometry y="130" width="190" height="8" as="geometry" />
        </mxCell>
        <mxCell id="T-5C3bmZL_pYbA-8gw9O-14" value="+ __init__(gun: GunInterface, ammo: int)" style="text;strokeColor=none;fillColor=none;align=left;verticalAlign=top;spacingLeft=4;spacingRight=4;overflow=hidden;rotatable=0;points=[[0,0.5],[1,0.5]];portConstraint=eastwest;whiteSpace=wrap;html=1;" vertex="1" parent="T-5C3bmZL_pYbA-8gw9O-10">
          <mxGeometry y="138" width="190" height="52" as="geometry" />
        </mxCell>
        <mxCell id="T-5C3bmZL_pYbA-8gw9O-15" value="+ shoot ()" style="text;strokeColor=none;fillColor=none;align=left;verticalAlign=top;spacingLeft=4;spacingRight=4;overflow=hidden;rotatable=0;points=[[0,0.5],[1,0.5]];portConstraint=eastwest;whiteSpace=wrap;html=1;" vertex="1" parent="T-5C3bmZL_pYbA-8gw9O-10">
          <mxGeometry y="190" width="190" height="30" as="geometry" />
        </mxCell>
        <mxCell id="T-5C3bmZL_pYbA-8gw9O-16" value="+ reload (ammo: int)" style="text;strokeColor=none;fillColor=none;align=left;verticalAlign=top;spacingLeft=4;spacingRight=4;overflow=hidden;rotatable=0;points=[[0,0.5],[1,0.5]];portConstraint=eastwest;whiteSpace=wrap;html=1;" vertex="1" parent="T-5C3bmZL_pYbA-8gw9O-10">
          <mxGeometry y="220" width="190" height="30" as="geometry" />
        </mxCell>
        <mxCell id="T-5C3bmZL_pYbA-8gw9O-19" value="" style="endArrow=block;endSize=16;endFill=0;html=1;rounded=0;entryX=0.523;entryY=1.105;entryDx=0;entryDy=0;entryPerimeter=0;exitX=0.474;exitY=0;exitDx=0;exitDy=0;exitPerimeter=0;" edge="1" parent="1" source="T-5C3bmZL_pYbA-8gw9O-4" target="T-5C3bmZL_pYbA-8gw9O-2">
          <mxGeometry width="160" relative="1" as="geometry">
            <mxPoint x="424" y="309" as="sourcePoint" />
            <mxPoint x="425" y="250" as="targetPoint" />
          </mxGeometry>
        </mxCell>
        <mxCell id="T-5C3bmZL_pYbA-8gw9O-20" value="" style="endArrow=block;endSize=16;endFill=0;html=1;rounded=0;entryX=0.423;entryY=1.124;entryDx=0;entryDy=0;entryPerimeter=0;exitX=0.479;exitY=0.002;exitDx=0;exitDy=0;exitPerimeter=0;" edge="1" parent="1" source="T-5C3bmZL_pYbA-8gw9O-10" target="T-5C3bmZL_pYbA-8gw9O-2">
          <mxGeometry width="160" relative="1" as="geometry">
            <mxPoint x="290" y="299" as="sourcePoint" />
            <mxPoint x="291" y="240" as="targetPoint" />
          </mxGeometry>
        </mxCell>
        <mxCell id="T-5C3bmZL_pYbA-8gw9O-21" value="прокси" style="text;html=1;align=center;verticalAlign=middle;resizable=0;points=[];autosize=1;strokeColor=none;fillColor=none;" vertex="1" parent="1">
          <mxGeometry x="70" y="268" width="60" height="30" as="geometry" />
        </mxCell>
        <mxCell id="T-5C3bmZL_pYbA-8gw9O-22" value="реальный обьект" style="text;html=1;align=center;verticalAlign=middle;resizable=0;points=[];autosize=1;strokeColor=none;fillColor=none;" vertex="1" parent="1">
          <mxGeometry x="405" y="288" width="110" height="30" as="geometry" />
        </mxCell>
      </root>
    </mxGraphModel>
  </diagram>
</mxfile>
